<svg width="16" height="16" viewBox="0 0 16 16" fill="none" xmlns="http://www.w3.org/2000/svg">
<path d="M8 14.375C11.7279 14.375 14.75 11.2542 14.75 9.125C14.75 6.99575 11.7279 3.875 8 3.875C4.27213 3.875 1.25 6.998 1.25 9.125C1.25 11.252 4.27213 14.375 8 14.375Z" stroke="#FF5D01" stroke-width="1.5" stroke-linejoin="round"/>
<path d="M8 11.375C8.59674 11.375 9.16903 11.1379 9.59099 10.716C10.0129 10.294 10.25 9.72174 10.25 9.125C10.25 8.52826 10.0129 7.95597 9.59099 7.53401C9.16903 7.11205 8.59674 6.875 8 6.875C7.40326 6.875 6.83097 7.11205 6.40901 7.53401C5.98705 7.95597 5.75 8.52826 5.75 9.125C5.75 9.72174 5.98705 10.294 6.40901 10.716C6.83097 11.1379 7.40326 11.375 8 11.375Z" stroke="#FF5D01" stroke-width="1.5" stroke-linejoin="round"/>
<path d="M3.974 3.22475L4.94675 4.58225M12.3594 3.39125L11.3862 4.74875M8.00337 1.625V3.875" stroke="#FF5D01" stroke-width="1.5" stroke-linecap="round"/>
</svg>
