<svg width="20" height="20" viewBox="0 0 20 20" fill="none" xmlns="http://www.w3.org/2000/svg">
<path d="M19 10C18.7348 10 18.4804 10.1054 18.2929 10.2929C18.1054 10.4804 18 10.7348 18 11V17C18 17.2652 17.8946 17.5196 17.7071 17.7071C17.5196 17.8946 17.2652 18 17 18H3C2.73478 18 2.48043 17.8946 2.29289 17.7071C2.10536 17.5196 2 17.2652 2 17V3C2 2.73478 2.10536 2.48043 2.29289 2.29289C2.48043 2.10536 2.73478 2 3 2H9C9.26522 2 9.51957 1.89464 9.70711 1.70711C9.89464 1.51957 10 1.26522 10 1C10 0.734784 9.89464 0.48043 9.70711 0.292893C9.51957 0.105357 9.26522 0 9 0H3C2.20435 0 1.44129 0.316071 0.87868 0.87868C0.316071 1.44129 0 2.20435 0 3V17C0 17.7956 0.316071 18.5587 0.87868 19.1213C1.44129 19.6839 2.20435 20 3 20H17C17.7956 20 18.5587 19.6839 19.1213 19.1213C19.6839 18.5587 20 17.7956 20 17V11C20 10.7348 19.8946 10.4804 19.7071 10.2929C19.5196 10.1054 19.2652 10 19 10ZM4 10.76V15C4 15.2652 4.10536 15.5196 4.29289 15.7071C4.48043 15.8946 4.73478 16 5 16H9.24C9.37161 16.0008 9.50207 15.9755 9.62391 15.9258C9.74574 15.876 9.85656 15.8027 9.95 15.71L16.87 8.78L19.71 6C19.8037 5.90704 19.8781 5.79644 19.9289 5.67458C19.9797 5.55272 20.0058 5.42201 20.0058 5.29C20.0058 5.15799 19.9797 5.02728 19.9289 4.90542C19.8781 4.78356 19.8037 4.67296 19.71 4.58L15.47 0.29C15.377 0.196272 15.2664 0.121877 15.1446 0.0711086C15.0227 0.0203399 14.892 -0.00579834 14.76 -0.00579834C14.628 -0.00579834 14.4973 0.0203399 14.3754 0.0711086C14.2536 0.121877 14.143 0.196272 14.05 0.29L11.23 3.12L4.29 10.05C4.19732 10.1434 4.12399 10.2543 4.07423 10.3761C4.02446 10.4979 3.99924 10.6284 4 10.76ZM14.76 2.41L17.59 5.24L16.17 6.66L13.34 3.83L14.76 2.41ZM6 11.17L11.93 5.24L14.76 8.07L8.83 14H6V11.17Z" fill="#854CFF"/>
</svg>
